<?xml version="1.0" encoding="UTF-8" standalone="no"?>
<!-- Created with Inkscape (http://www.inkscape.org/) -->

<svg
   width="40cm"
   height="40cm"
   id="svg2"
   sodipodi:version="0.32"
   inkscape:version="1.2.2 (b0a8486541, 2022-12-01)"
   version="1.0"
   sodipodi:docname="bottom_holder.svg"
   inkscape:output_extension="org.inkscape.output.svg.inkscape"
   inkscape:export-filename="/Volumes/Data/Users/francois/Desktop/Volley/volley.png"
   inkscape:export-xdpi="300"
   inkscape:export-ydpi="300"
   viewBox="0 0 1511.811 1511.8109"
   xmlns:inkscape="http://www.inkscape.org/namespaces/inkscape"
   xmlns:sodipodi="http://sodipodi.sourceforge.net/DTD/sodipodi-0.dtd"
   xmlns="http://www.w3.org/2000/svg"
   xmlns:svg="http://www.w3.org/2000/svg"
   xmlns:rdf="http://www.w3.org/1999/02/22-rdf-syntax-ns#"
   xmlns:cc="http://creativecommons.org/ns#"
   xmlns:dc="http://purl.org/dc/elements/1.1/">
  <defs
     id="defs4">
    <inkscape:perspective
       sodipodi:type="inkscape:persp3d"
       inkscape:vp_x="0 : 372.28343 : 1"
       inkscape:vp_y="0 : 1066.6666 : 0"
       inkscape:vp_z="793.70075 : 372.28343 : 1"
       inkscape:persp3d-origin="396.85038 : 185.19684 : 1"
       id="perspective10" />
    <inkscape:perspective
       id="perspective2450"
       inkscape:persp3d-origin="396.85038 : 185.19684 : 1"
       inkscape:vp_z="793.70075 : 372.28343 : 1"
       inkscape:vp_y="0 : 1066.6666 : 0"
       inkscape:vp_x="0 : 372.28343 : 1"
       sodipodi:type="inkscape:persp3d" />
  </defs>
  <sodipodi:namedview
     id="base"
     pagecolor="#ffffff"
     bordercolor="#666666"
     borderopacity="1.0"
     gridtolerance="10000"
     guidetolerance="10"
     objecttolerance="10"
     inkscape:pageopacity="0.0"
     inkscape:pageshadow="2"
     inkscape:zoom="0.53048958"
     inkscape:cx="893.51425"
     inkscape:cy="727.62975"
     inkscape:document-units="cm"
     inkscape:current-layer="layer3"
     showgrid="true"
     inkscape:window-width="1920"
     inkscape:window-height="1011"
     inkscape:window-x="0"
     inkscape:window-y="0"
     inkscape:window-maximized="1"
     units="cm"
     inkscape:object-paths="true"
     inkscape:snap-intersection-paths="false"
     inkscape:object-nodes="true"
     inkscape:snap-smooth-nodes="true"
     inkscape:snap-text-baseline="true"
     inkscape:snap-others="true"
     inkscape:snap-bbox="false"
     inkscape:bbox-nodes="true"
     showguides="false"
     viewbox-height="1814.17"
     scale-x="1"
     inkscape:showpageshadow="2"
     inkscape:pagecheckerboard="0"
     inkscape:deskcolor="#d1d1d1">
    <inkscape:grid
       type="xygrid"
       id="grid3770"
       empspacing="5"
       visible="true"
       enabled="true"
       snapvisiblegridlinesonly="true"
       units="mm"
       spacingx="3.7795276"
       spacingy="3.7795276"
       dotted="true"
       originx="0"
       originy="0" />
    <inkscape:grid
       type="xygrid"
       id="grid3393"
       units="cm"
       spacingx="37.795276"
       spacingy="37.795276"
       empspacing="10"
       originx="0"
       originy="0"
       dotted="false" />
    <inkscape:grid
       type="xygrid"
       id="grid4558"
       units="mm"
       spacingx="0.37795276"
       spacingy="0.37795276"
       empspacing="5"
       enabled="false"
       dotted="true"
       originx="0"
       originy="0" />
  </sodipodi:namedview>
  <metadata
     id="metadata7">
    <rdf:RDF>
      <cc:Work
         rdf:about="">
        <dc:format>image/svg+xml</dc:format>
        <dc:type
           rdf:resource="http://purl.org/dc/dcmitype/StillImage" />
      </cc:Work>
    </rdf:RDF>
  </metadata>
  <g
     inkscape:groupmode="layer"
     id="layer2"
     inkscape:label="base cutout"
     style="display:none"
     transform="translate(0,396.85042)">
    <path
       id="path1-3-5"
       style="display:inline;fill:#ffffff;fill-opacity:1;stroke:#ff0000;stroke-width:3.77953;stroke-dasharray:none;stroke-opacity:1"
       d="M 585.82598,189.63882 A 234.33069,234.33069 0 0 0 361.39826,413.85757 H 398.5174 V 432.756 h -37.11914 a 234.33069,234.33069 0 0 0 224.42772,224.22075 v -37.1348 h 18.89844 v 37.1211 A 234.33069,234.33069 0 0 0 829.15214,432.756 h -37.5625 v -18.89843 h 37.11719 A 234.33069,234.33069 0 0 0 604.72442,189.67007 v 37.10156 h -18.89844 z m 9.22656,74.92773 a 158.74014,158.74014 0 0 1 0.002,0 A 158.74014,158.74014 0 0 1 753.79277,423.30679 158.74014,158.74014 0 0 1 595.05254,582.04705 158.74014,158.74014 0 0 1 436.31232,423.30679 158.74014,158.74014 0 0 1 595.05254,264.56655 Z" />
    <g
       inkscape:groupmode="layer"
       id="layer3-0"
       inkscape:label="holders"
       style="display:inline"
       transform="translate(207.87402,18.897651)">
      <path
         id="rect1126-0-6-3"
         style="display:inline;fill:#ffffff;fill-opacity:1;stroke:#ff0000;stroke-width:3.77953;stroke-linecap:round;stroke-linejoin:round;stroke-opacity:1"
         d="m -170.07874,-377.95279 h 26.45669 v 113.38582 h 86.92913 V -75.590592 H 245.66929 V -264.56697 h 86.92914 v -113.38582 h 26.45669 v 340.157478 c -0.17062,37.36573 -30.23622,94.48819 -30.23622,132.28347 v 56.692912 l -37.79527,-1e-5 -1e-5,-56.692902 c 0,-75.59056 -15.1181,-132.28383 -37.79527,-132.28383 H 103.93701 v -18.89764 H 85.039366 v 18.89764 H -64.25197 c -22.67716,0 -37.79528,56.69327 -37.79528,132.28383 l 1e-5,56.692912 c -1e-5,37.79527 222.99212,37.79527 222.99212,75.59054 V 377.95273 H 103.93701 V 340.15745 H 85.039366 v 37.79528 H 68.031496 V 245.66926 c 0,-18.89764 -207.874016,-18.89764 -207.874016,-75.59055 V 94.488158 c 0,-37.79528 -30.23622,-94.75064 -30.23622,-132.28347 z"
         sodipodi:nodetypes="ccccccccccccccccccccccccccccccccscc" />
      <path
         id="rect1126-0-6-2-6"
         style="display:inline;fill:#ffffff;fill-opacity:1;stroke:#ff0000;stroke-width:3.77953;stroke-linecap:round;stroke-linejoin:round;stroke-opacity:1"
         d="m 925.9843,-377.95279 h -30.23622 v 113.38582 h -83.1496 V -75.590597 H 670.86619 v 18.89764 h -18.89764 v -18.89764 H 510.23622 V -264.56697 H 427.0866 v -113.38582 h -30.2362 v 340.157473 c 0.1706,37.36573 30.2362,94.48819 30.2362,132.28347 v 56.692917 l 37.7953,-1e-5 V 94.488153 c 0,-75.59056 15.11812,-132.28383 37.79532,-132.28383 h 317.48031 c 22.67716,0 37.79528,56.69327 37.79528,132.28383 l -10e-6,56.692917 c 10e-6,37.79528 -187.08795,45.35433 -187.08795,75.59055 l 10e-4,113.38583 h -35.90551 v 37.79528 h 52.91338 V 245.66926 c 0,-18.89764 207.87402,-37.79528 207.87402,-75.59055 V 94.488153 c 0,-37.79528 30.23622,-94.75064 30.23622,-132.28347 z"
         sodipodi:nodetypes="ccccccccccccccccccccccccccccccscc" />
    </g>
  </g>
  <g
     inkscape:groupmode="layer"
     id="layer3"
     inkscape:label="holders"
     style="display:inline">
    <path
       id="path1-3"
       style="display:inline;fill:#ffffff;fill-opacity:1;stroke:#000000;stroke-width:3.77953;stroke-dasharray:none;stroke-opacity:1"
       d="M 302.36141,862.39517 A 234.33069,234.33069 0 0 0 77.933686,1086.6139 h 37.119144 v 18.8985 H 77.933686 A 234.33069,234.33069 0 0 0 302.36141,1329.733 v -37.1347 h 18.89844 v 37.1211 a 234.33069,234.33069 0 0 0 224.42772,-224.207 h -37.5625 v -18.8985 h 37.11719 A 234.33069,234.33069 0 0 0 321.25985,862.42642 v 37.10156 h -18.89844 z m 9.22656,74.92773 a 158.74014,158.74014 0 0 1 0.002,0 158.74014,158.74014 0 0 1 158.73823,158.7402 158.74014,158.74014 0 0 1 -158.74023,158.7403 158.74014,158.74014 0 0 1 -158.74022,-158.7403 158.74014,158.74014 0 0 1 158.74022,-158.7402 z" />
    <path
       id="rect1126-0-6"
       style="display:inline;fill:none;stroke:#000000;stroke-width:3.77953;stroke-linecap:round;stroke-linejoin:round"
       d="M 37.795276,37.795276 H 64.251969 V 151.1811 H 151.1811 V 340.15748 H 453.54331 V 151.1811 h 86.92914 V 37.795276 h 26.45669 V 377.95276 c -0.17062,37.36573 -30.23622,94.48819 -30.23622,132.28347 v 56.69291 l -37.79527,-10e-6 -10e-6,-56.6929 c 0,-75.59056 -15.1181,-132.28383 -37.79527,-132.28383 H 311.81103 V 359.05476 H 292.91339 V 377.9524 H 143.62205 c -22.67716,0 -37.79528,56.69327 -37.79528,132.28383 l 1e-5,56.69291 c -1e-5,37.79528 222.99212,37.79528 222.99212,75.59055 V 793.7008 H 311.81103 V 755.90552 H 292.91339 V 793.7008 H 275.90552 V 661.41733 c 0,-18.89764 -207.874023,-18.89764 -207.874023,-75.59055 v -75.59055 c 0,-37.79528 -30.236221,-94.75064 -30.236221,-132.28347 z"
       sodipodi:nodetypes="ccccccccccccccccccccccccccccccccscc" />
    <path
       id="rect1126-0-6-2"
       style="display:inline;fill:none;stroke:#000000;stroke-width:3.77953;stroke-linecap:round;stroke-linejoin:round"
       d="m 604.72442,37.795276 h 30.23622 V 151.1811 h 83.1496 v 188.97638 h 141.73229 v 18.89764 h 18.89764 V 340.15748 H 1020.4725 V 151.1811 h 83.1496 V 37.795276 h 30.2362 V 377.95276 c -0.1706,37.36573 -30.2362,94.48819 -30.2362,132.28347 v 56.69291 l -37.7953,-10e-6 v -56.6929 c 0,-75.59056 -15.1181,-132.28383 -37.7953,-132.28383 H 710.55119 c -22.67716,0 -37.79528,56.69327 -37.79528,132.28383 l 10e-6,56.69291 c -10e-6,37.79528 187.08795,45.35433 187.08795,75.59055 l -0.001,113.38583 h 35.90551 V 793.7008 H 842.835 V 661.41733 c 0,-18.89764 -207.87402,-37.79528 -207.87402,-75.59055 v -75.59055 c 0,-37.79528 -30.23622,-94.75064 -30.23622,-132.28347 z"
       sodipodi:nodetypes="ccccccccccccccccccccccccccccccscc" />
    <path
       id="rect3673-7-5-6"
       style="display:inline;fill:#ffffff;stroke:#000000;stroke-width:3.77953"
       d="m 597.16532,850.39369 h 34.0158 c -3.7796,7.5591 -7.5591,18.8977 -7.5591,37.7953 h -18.8976 c 0,-18.8976 -3.7796,-30.2362 -7.5591,-37.7953 z"
       sodipodi:nodetypes="ccccc" />
  </g>
  <g
     inkscape:groupmode="layer"
     id="layer4"
     inkscape:label="loudspeaker"
     transform="translate(0,950.92165)"
     style="display:inline">
    <path
       id="rect576"
       style="fill:#e0e0e0;fill-opacity:0.501961;stroke:#000000;stroke-width:1.88976;stroke-dasharray:none;stroke-opacity:1"
       d="M 64.251969,-799.74055 64.126506,-913.12602 H 540.34699 l 0.12546,113.38547 z"
       sodipodi:nodetypes="ccccc" />
    <path
       id="rect576-3"
       style="display:inline;fill:#e0e0e0;fill-opacity:0.501961;stroke:#000000;stroke-width:1.88976;stroke-dasharray:none;stroke-opacity:1"
       d="m 68.15696,-402.89015 -0.125463,-18.89764 H 536.69359 l 0.12546,18.89764 z"
       sodipodi:nodetypes="ccccc" />
    <path
       id="rect576-3-9"
       style="display:inline;fill:#e0e0e0;fill-opacity:0.501961;stroke:#000000;stroke-width:1.88976;stroke-dasharray:none;stroke-opacity:1"
       d="m 634.96064,-402.89015 -0.12546,-18.89764 h 468.66212 l 0.1255,18.89764 z"
       sodipodi:nodetypes="ccccc" />
    <path
       id="rect576-3-9-1"
       style="display:inline;fill:#e0e0e0;fill-opacity:0.501961;stroke:#000000;stroke-width:1.88976;stroke-dasharray:none;stroke-opacity:1"
       d="m 859.84387,-157.22085 -0.1255,-415.74804 h 18.8976 l 0.1255,415.74804 z"
       sodipodi:nodetypes="ccccc" />
    <path
       id="rect576-3-9-1-7"
       style="display:inline;fill:#e0e0e0;fill-opacity:0.501961;stroke:#000000;stroke-width:1.88976;stroke-dasharray:none;stroke-opacity:1"
       d="m 292.91376,-157.22085 -0.1255,-415.74804 h 18.8976 l 0.1255,415.74804 z"
       sodipodi:nodetypes="ccccc" />
    <path
       id="rect576-3-6-7"
       style="display:inline;fill:#e0e0e0;fill-opacity:0.501961;stroke:#000000;stroke-width:1.88976;stroke-dasharray:none;stroke-opacity:1"
       d="m 113.25976,-270.60741 0.12695,113.38656 h 162.48827 l -0.0332,-113.38656 z m 215.55914,7.3e-4 0.0312,113.38656 162.48771,-7.3e-4 -0.125,-113.38656 z"
       sodipodi:nodetypes="cccccccccc" />
    <path
       id="rect576-3-6-7-2"
       style="display:inline;fill:#e0e0e0;fill-opacity:0.501961;stroke:#000000;stroke-width:1.88976;stroke-dasharray:none;stroke-opacity:1"
       d="m 680.18802,-270.60741 0.12695,113.38656 h 162.48827 l -0.0332,-113.38656 z m 215.55914,7.3e-4 0.0312,113.38656 162.48774,-7.3e-4 -0.125,-113.38656 z"
       sodipodi:nodetypes="cccccccccc" />
    <path
       id="rect576-35"
       style="display:inline;fill:#e0e0e0;fill-opacity:0.501961;stroke:#000000;stroke-width:1.88976;stroke-dasharray:none;stroke-opacity:1"
       d="m 634.9616,-799.7409 -0.12547,-113.38547 h 468.66207 l 0.1255,113.38547 z"
       sodipodi:nodetypes="ccccc" />
    <circle
       style="fill:#e0e0e0;fill-opacity:0.501961;stroke:#000000;stroke-width:1.88976;stroke-dasharray:none;stroke-opacity:1"
       id="path1"
       cx="311.58887"
       cy="145.14136"
       r="234.33069" />
  </g>
</svg>
