<?xml version="1.0" encoding="UTF-8" standalone="no"?>
<!-- Created with Inkscape (http://www.inkscape.org/) -->

<svg
   width="32cm"
   height="25cm"
   id="svg2"
   sodipodi:version="0.32"
   inkscape:version="1.2.2 (b0a8486541, 2022-12-01)"
   version="1.0"
   sodipodi:docname="cone_holder.svg"
   inkscape:output_extension="org.inkscape.output.svg.inkscape"
   inkscape:export-filename="/Volumes/Data/Users/francois/Desktop/Volley/volley.png"
   inkscape:export-xdpi="300"
   inkscape:export-ydpi="300"
   viewBox="0 0 1209.4488 944.88183"
   xmlns:inkscape="http://www.inkscape.org/namespaces/inkscape"
   xmlns:sodipodi="http://sodipodi.sourceforge.net/DTD/sodipodi-0.dtd"
   xmlns="http://www.w3.org/2000/svg"
   xmlns:svg="http://www.w3.org/2000/svg"
   xmlns:rdf="http://www.w3.org/1999/02/22-rdf-syntax-ns#"
   xmlns:cc="http://creativecommons.org/ns#"
   xmlns:dc="http://purl.org/dc/elements/1.1/">
  <defs
     id="defs4">
    <inkscape:perspective
       sodipodi:type="inkscape:persp3d"
       inkscape:vp_x="0 : -194.64566 : 1"
       inkscape:vp_y="0 : 1066.6666 : 0"
       inkscape:vp_z="793.70073 : -194.64566 : 1"
       inkscape:persp3d-origin="396.85037 : -381.73225 : 1"
       id="perspective10" />
    <inkscape:perspective
       id="perspective2450"
       inkscape:persp3d-origin="396.85037 : -381.73225 : 1"
       inkscape:vp_z="793.70073 : -194.64566 : 1"
       inkscape:vp_y="0 : 1066.6666 : 0"
       inkscape:vp_x="0 : -194.64566 : 1"
       sodipodi:type="inkscape:persp3d" />
  </defs>
  <sodipodi:namedview
     id="base"
     pagecolor="#ffffff"
     bordercolor="#666666"
     borderopacity="1.0"
     gridtolerance="10000"
     guidetolerance="10"
     objecttolerance="10"
     inkscape:pageopacity="0.0"
     inkscape:pageshadow="2"
     inkscape:zoom="0.84878333"
     inkscape:cx="639.73923"
     inkscape:cy="382.90102"
     inkscape:document-units="cm"
     inkscape:current-layer="layer1"
     showgrid="true"
     inkscape:window-width="1920"
     inkscape:window-height="1011"
     inkscape:window-x="0"
     inkscape:window-y="0"
     inkscape:window-maximized="1"
     units="cm"
     inkscape:object-paths="true"
     inkscape:snap-intersection-paths="false"
     inkscape:object-nodes="true"
     inkscape:snap-smooth-nodes="true"
     inkscape:snap-text-baseline="true"
     inkscape:snap-others="true"
     inkscape:snap-bbox="false"
     inkscape:bbox-nodes="true"
     showguides="false"
     viewbox-height="1814.17"
     scale-x="1"
     inkscape:showpageshadow="2"
     inkscape:pagecheckerboard="0"
     inkscape:deskcolor="#d1d1d1">
    <inkscape:grid
       type="xygrid"
       id="grid3770"
       empspacing="5"
       visible="true"
       enabled="true"
       snapvisiblegridlinesonly="true"
       units="mm"
       spacingx="3.7795276"
       spacingy="3.7795276"
       dotted="true"
       originx="0"
       originy="0" />
    <inkscape:grid
       type="xygrid"
       id="grid3393"
       units="cm"
       spacingx="37.795276"
       spacingy="37.795276"
       empspacing="10"
       originx="0"
       originy="0"
       dotted="false" />
    <inkscape:grid
       type="xygrid"
       id="grid4558"
       units="mm"
       spacingx="0.37795276"
       spacingy="0.37795276"
       empspacing="5"
       enabled="false"
       dotted="true"
       originx="0"
       originy="0" />
  </sodipodi:namedview>
  <metadata
     id="metadata7">
    <rdf:RDF>
      <cc:Work
         rdf:about="">
        <dc:format>image/svg+xml</dc:format>
        <dc:type
           rdf:resource="http://purl.org/dc/dcmitype/StillImage" />
      </cc:Work>
    </rdf:RDF>
  </metadata>
  <g
     inkscape:groupmode="layer"
     id="layer2"
     inkscape:label="base cutout"
     style="display:none">
    <path
       id="path1-3-5"
       style="display:inline;fill:#ffffff;fill-opacity:1;stroke:#ff0000;stroke-width:3.77953;stroke-dasharray:none;stroke-opacity:1"
       d="M 425.41918,19.560393 A 234.33069,234.33069 0 0 0 200.99146,243.77914 h 37.11914 v 18.89843 H 200.99146 A 234.33069,234.33069 0 0 0 425.41918,486.8983 v -37.1348 h 18.89844 v 37.1211 A 234.33069,234.33069 0 0 0 668.74534,262.67757 h -37.5625 v -18.89843 h 37.11719 A 234.33069,234.33069 0 0 0 444.31762,19.591643 v 37.10156 h -18.89844 z m 9.22656,74.927733 a 158.74014,158.74014 0 0 1 0.002,0 A 158.74014,158.74014 0 0 1 593.38597,253.22836 158.74014,158.74014 0 0 1 434.64574,411.9686 158.74014,158.74014 0 0 1 275.90552,253.22836 158.74014,158.74014 0 0 1 434.64574,94.488126 Z" />
    <path
       id="rect1126-0-6-6"
       style="display:inline;fill:none;stroke:#ff0000;stroke-width:3.77953;stroke-linecap:round;stroke-linejoin:round;stroke-opacity:1"
       d="M 18.897638,487.55908 V 18.897639 l 283.464582,10e-6 -10e-6,37.79527 h -109.6063 c -79.37008,0 -136.063002,15.118108 -136.063002,37.795283 V 243.77954 h -18.89764 v 18.89764 h 18.89764 v 149.29134 c 0,22.67716 56.692922,37.79527 139.842522,37.79527 h 105.82678 l 10e-6,37.79528 z"
       sodipodi:nodetypes="ccccccccccccccc" />
    <path
       id="rect1126-0-6-5-29"
       style="display:inline;fill:none;stroke:#ff0000;stroke-width:3.77953;stroke-linecap:round;stroke-linejoin:round;stroke-opacity:1"
       d="M 850.39371,18.897629 V 243.77952 h -18.8976 v 18.89759 h 18.8976 v 224.8821 l -283.46458,-1e-4 10e-6,-37.7952 h 109.6063 c 79.37007,0 136.06297,-15.1181 136.06297,-37.7954 0,0 0,-317.480298 0,-317.480298 0,-22.677203 -56.6929,-37.795303 -139.84248,-37.795303 H 566.92915 l -1e-5,-37.79527 z"
       sodipodi:nodetypes="ccccccccccccccc" />
  </g>
  <g
     inkscape:groupmode="layer"
     id="layer1"
     inkscape:label="cone cutout"
     transform="translate(0,1133.8582)"
     style="display:inline">
    <g
       id="g1031">
      <path
         id="rect1126-0-6-7"
         style="display:inline;fill:none;stroke:#ff0000;stroke-width:3.77953;stroke-linecap:round;stroke-linejoin:round;stroke-opacity:1"
         d="M 26.456693,-1114.9606 H 480.00001 l 7.55906,7.559 v 275.9056 l -37.79527,-10e-6 v -109.6063 c 0,-79.37009 -15.11811,-136.06309 -37.79528,-136.06309 H 262.67718 v -18.8976 h -18.89764 v 18.8976 H 94.488193 c -22.67716,0 -37.79527,56.693 -37.79527,139.84261 v 105.82678 l -37.79527,10e-6 -10e-6,-275.9056 z"
         sodipodi:nodetypes="ccccccccccccccccc" />
      <rect
         style="display:inline;fill:#ffffff;fill-opacity:1;stroke:#ff0000;stroke-width:3.77953;stroke-dasharray:none;stroke-opacity:1"
         id="rect3673-9"
         width="18.897636"
         height="37.795269"
         x="34.015747"
         y="-1084.7244" />
      <rect
         style="display:inline;fill:#ffffff;fill-opacity:1;stroke:#ff0000;stroke-width:3.77953;stroke-dasharray:none;stroke-opacity:1"
         id="rect3673-7-1"
         width="18.897636"
         height="37.795269"
         x="453.54327"
         y="-1084.7244" />
    </g>
    <path
       id="rect3673-7-5-6-9"
       style="display:inline;fill:#ffffff;stroke:#ff0000;stroke-width:3.77953;stroke-opacity:1"
       d="m 162.51964,-1039.37 h 34.0158 c -3.7796,7.5591 -7.5591,18.8977 -7.5591,37.7953 h -18.8976 c 0,-18.8976 -3.7796,-30.2362 -7.5591,-37.7953 z"
       sodipodi:nodetypes="ccccc" />
    <path
       id="rect3673-7-5-6-9-3"
       style="display:inline;fill:#ffffff;stroke:#ff0000;stroke-width:3.77953;stroke-opacity:1"
       d="m 200.31492,-1039.37 h 34.0158 c -3.7796,7.5591 -7.5591,18.8977 -7.5591,37.7953 h -18.8976 c 0,-18.8976 -3.7796,-30.2362 -7.5591,-37.7953 z"
       sodipodi:nodetypes="ccccc" />
    <path
       id="rect3673-7-5-6-9-6"
       style="display:inline;fill:#ffffff;stroke:#ff0000;stroke-width:3.77953;stroke-opacity:1"
       d="m 238.11019,-1039.37 h 34.0158 c -3.7796,7.5591 -7.5591,18.8977 -7.5591,37.7953 h -18.8976 c 0,-18.8976 -3.7796,-30.2362 -7.5591,-37.7953 z"
       sodipodi:nodetypes="ccccc" />
    <path
       id="rect3673-7-5-6-9-3-0"
       style="display:inline;fill:#ffffff;stroke:#ff0000;stroke-width:3.77953;stroke-opacity:1"
       d="m 275.90547,-1039.37 h 34.0158 c -3.7796,7.5591 -7.5591,18.8977 -7.5591,37.7953 h -18.8976 c 0,-18.8976 -3.7796,-30.2362 -7.5591,-37.7953 z"
       sodipodi:nodetypes="ccccc" />
    <g
       id="g1036">
      <rect
         style="display:inline;fill:#ffffff;fill-opacity:1;stroke:#ff0000;stroke-width:3.77953;stroke-dasharray:none;stroke-opacity:1"
         id="rect3673-3-7"
         width="18.897636"
         height="37.795269"
         x="-548.03156"
         y="823.93695"
         transform="scale(-1)" />
      <rect
         style="display:inline;fill:#ffffff;fill-opacity:1;stroke:#ff0000;stroke-width:3.77953;stroke-dasharray:none;stroke-opacity:1"
         id="rect3673-7-5-0"
         width="18.897636"
         height="37.795269"
         x="-128.50395"
         y="823.93695"
         transform="scale(-1)" />
      <path
         id="rect1126-0-6-5-5"
         style="display:inline;fill:none;stroke:#ff0000;stroke-width:3.77953;stroke-linecap:round;stroke-linejoin:round;stroke-opacity:1"
         d="m 555.59049,-793.70069 h -217.3228 v -18.8976 h -18.8976 v 18.8976 h -217.3228 l -7.5591,-7.5591 v -275.90551 h 37.79521 v 109.60631 c 0,79.3701 15.11809,136.063 37.7953,136.063 0,0 317.48029,0 317.48029,0 22.6772,0 37.7953,-56.6929 37.7953,-139.8425 v -105.82681 h 37.7953 v 275.90551 z"
         sodipodi:nodetypes="ccccccccccccccccc" />
    </g>
  </g>
  <g
     inkscape:groupmode="layer"
     id="layer3"
     inkscape:label="holders"
     style="display:none">
    <path
       id="path1-3"
       style="display:inline;fill:#ffffff;fill-opacity:1;stroke:#000000;stroke-width:3.77953;stroke-dasharray:none;stroke-opacity:1"
       d="M 293.13475,416.41087 A 234.33069,234.33069 0 0 0 68.707027,640.62961 h 37.119143 v 18.89843 H 68.707027 A 234.33069,234.33069 0 0 0 293.13475,883.74873 v -37.13476 h 18.89844 v 37.12109 A 234.33069,234.33069 0 0 0 536.46091,659.52804 h -37.5625 V 640.62961 H 536.0156 A 234.33069,234.33069 0 0 0 312.03319,416.44212 v 37.10156 h -18.89844 z m 9.22656,74.92773 a 158.74014,158.74014 0 0 1 0.002,0 A 158.74014,158.74014 0 0 1 461.10154,650.07883 158.74014,158.74014 0 0 1 302.36131,808.81905 158.74014,158.74014 0 0 1 143.62109,650.07883 158.74014,158.74014 0 0 1 302.36131,491.3386 Z" />
    <path
       id="rect1126-0-6"
       style="display:inline;fill:none;stroke:#000000;stroke-width:3.77953;stroke-linecap:round;stroke-linejoin:round"
       d="M 75.590552,75.590552 H 529.13386 l 7.55906,7.559055 V 359.05513 l -37.79527,-1e-5 v -109.6063 c 0,-79.37008 -15.11811,-136.063 -37.79528,-136.063 H 311.81103 V 94.488182 H 292.91339 V 113.38582 H 143.62205 c -22.67716,0 -37.79527,56.69292 -37.79527,139.84252 v 105.82678 l -37.795272,1e-5 -1.1e-5,-275.905523 z"
       sodipodi:nodetypes="ccccccccccccccccc" />
    <rect
       style="fill:#ffffff;fill-opacity:1;stroke:#000000;stroke-width:3.77953;stroke-dasharray:none;stroke-opacity:1"
       id="rect3673"
       width="18.897636"
       height="37.795269"
       x="83.149605"
       y="105.82677" />
    <rect
       style="fill:#ffffff;fill-opacity:1;stroke:#000000;stroke-width:3.77953;stroke-dasharray:none;stroke-opacity:1"
       id="rect3673-7"
       width="18.897636"
       height="37.795269"
       x="502.67715"
       y="105.82677" />
    <path
       id="rect1126-0-6-5"
       style="display:inline;fill:none;stroke:#000000;stroke-width:3.77953;stroke-linecap:round;stroke-linejoin:round"
       d="M 604.72442,75.590552 H 822.04725 V 94.48819 h 18.89764 V 75.590552 h 217.32281 l 7.5591,7.559055 V 359.05513 l -37.7952,-1e-5 v -109.6063 c 0,-79.37008 -15.1181,-136.063 -37.79533,-136.063 -4e-5,1e-5 -317.48033,-10e-6 -317.48033,-10e-6 -22.6772,0 -37.7953,56.69292 -37.7953,139.84252 v 105.82678 l -37.79527,10e-6 -1e-5,-275.905513 z"
       sodipodi:nodetypes="ccccccccccccccccc" />
    <rect
       style="display:inline;fill:#ffffff;fill-opacity:1;stroke:#000000;stroke-width:3.77953;stroke-dasharray:none;stroke-opacity:1"
       id="rect3673-3"
       width="18.897636"
       height="37.795269"
       x="612.28345"
       y="105.82677" />
    <rect
       style="display:inline;fill:#ffffff;fill-opacity:1;stroke:#000000;stroke-width:3.77953;stroke-dasharray:none;stroke-opacity:1"
       id="rect3673-7-5"
       width="18.897636"
       height="37.795269"
       x="1031.811"
       y="105.82677" />
    <path
       id="rect3673-7-5-6"
       style="display:inline;fill:#ffffff;stroke:#000000;stroke-width:3.77953"
       d="m 1096.063,105.82677 h 34.0158 c -3.7796,7.55906 -7.5591,18.89764 -7.5591,37.79527 h -18.8976 c 0,-18.89763 -3.7796,-30.23621 -7.5591,-37.79527 z"
       sodipodi:nodetypes="ccccc" />
  </g>
  <g
     inkscape:groupmode="layer"
     id="layer4"
     inkscape:label="cone"
     transform="translate(0,950.92165)"
     style="display:none">
    <path
       id="rect2023-7-79"
       style="fill:#e0e0e0;fill-opacity:0.501961;stroke:#000000;stroke-width:1.88976;stroke-linecap:round;stroke-linejoin:round"
       d="m 302.36221,-686.35474 c 1.13386,0 3.77953,-7.55905 3.77953,-7.55905 34.01575,-105.82677 109.6063,-143.62205 185.19685,-151.18111 h 45.35434 l -1e-5,-22.67714 -7.55906,-7.55906 H 75.590552 l -7.559055,7.55906 3e-6,22.67714 h 45.35433 c 75.59056,7.55906 151.18111,45.35434 185.19686,151.18111 0,0 2.64567,7.55905 3.77952,7.55905 z"
       sodipodi:nodetypes="cccccccccccc" />
    <path
       id="rect576"
       style="fill:#e0e0e0;fill-opacity:0.501961;stroke:#000000;stroke-width:1.88976;stroke-dasharray:none;stroke-opacity:1"
       d="m 155.08503,-837.53631 c -13.7255,-3.70957 -27.7101,-6.15968 -41.6992,-7.55859 h -45.3554 l 0.0011,-22.67714 7.559055,-7.55906 H 529.13389 l 7.55906,7.55906 -3.9e-4,22.67714 h -45.3555 c -13.9891,1.39891 -27.9737,3.84902 -41.6992,7.55859 z"
       sodipodi:nodetypes="ccccccccccc" />
    <circle
       style="fill:#e0e0e0;fill-opacity:0.501961;stroke:#000000;stroke-width:1.88976;stroke-dasharray:none;stroke-opacity:1"
       id="path1"
       cx="302.36221"
       cy="-300.84293"
       r="234.33069" />
  </g>
</svg>
